# xmcd CD database file
#
# Track frame offsets:
#	150
#	11027
#	25560
#	36012
#	50047
#	59140
#	71787
#	82842
#	96670
#	110242
#	122625
#	134327
#	147525
#	158635
#	170175
#	181935
#	194447
#	204507
#
# Disc length: 2868 seconds
#
# Revision: 3
# Processed by: cddbd v1.5.2PL0 Copyright (c) Steve Scherf et al.
# Submitted via: CDex 1.50
#
DISCID=120b3212
DTITLE=Verschiedene - Country Greats Vol.1
DYEAR=1994
DGENRE=Country
TTITLE0=King Of The Road (Roger Miller)
TTITLE1=Me and Bobby Mc Gee (Roger Miller)
TTITLE2=When Two Worlds Collide (Roger Miller)
TTITLE3=My Elusive Dreams (Roger Miller)
TTITLE4=I'm So Glad (The Jordannaires)
TTITLE5=Love Lifted Me (The Jordannaires
TTITLE6=Heaven's Just A Sin Away (The Kendalls)
TTITLE7=Cryin' Time (The Kendalls)
TTITLE8=Heartaches By The Number (The Kendalls)
TTITLE9=Pick Me Up On Your Way Down (The Kendalls)
TTITLE10=This Time (Troy Shondell)
TTITLE11=After All The Good Is Gone (Conway Twitty)
TTITLE12=It's Only Make Believe (Conway Twitty)
TTITLE13=To See My Angel Cry (Conway Twitty)
TTITLE14=Linda On My Mind (Conway Twitty)
TTITLE15=The Shelter Of Your Arms (Willie Nelson)
TTITLE16=Healing Hands Of Time (Willie Nelson)
TTITLE17=Oklahoma Morning (Charley Pride)
EXTD=YEAR: 1994
EXTT0=
EXTT1=
EXTT2=
EXTT3=
EXTT4=
EXTT5=
EXTT6=
EXTT7=
EXTT8=
EXTT9=
EXTT10=
EXTT11=
EXTT12=
EXTT13=
EXTT14=
EXTT15=
EXTT16=
EXTT17=
PLAYORDER=
